<svg width="35" height="42" viewBox="0 0 35 42" fill="none" xmlns="http://www.w3.org/2000/svg">
<path d="M6.47304 31.7676C6.47304 32.8645 7.34371 33.7597 8.41495 33.7597H10.6349V39.4032C10.6349 40.8329 11.7518 42 13.1239 42C14.5005 42 15.6128 40.8376 15.6128 39.4032V33.7551H19.4875V39.3986C19.4875 40.8282 20.6043 41.9953 21.9764 41.9953C23.3531 41.9953 24.4653 40.8329 24.4653 39.3986V33.7551H26.6853C27.7566 33.7551 28.6272 32.8598 28.6272 31.763V13.2388H6.47304V31.7676ZM22.7514 3.63921L24.7981 0.592468C24.9166 0.414351 24.8893 0.175299 24.7297 0.0581165C24.5702 -0.0543785 24.3423 0.00186934 24.2237 0.179986L22.0995 3.34859C20.7 2.78143 19.141 2.46738 17.5045 2.46738C15.8681 2.46738 14.3091 2.78143 12.9096 3.34859L10.7854 0.184674C10.6668 0.00655656 10.4389 -0.0543782 10.2794 0.0628041C10.1198 0.175299 10.0925 0.409663 10.211 0.597155L12.2577 3.64389C9.00299 5.20008 6.72375 8.14838 6.43201 11.5935H28.5862C28.2853 8.14369 26.0016 5.19539 22.7514 3.63921ZM12.8276 8.44368C12.585 8.44368 12.3479 8.36973 12.1463 8.23118C11.9446 8.09264 11.7875 7.89571 11.6947 7.66532C11.6019 7.43492 11.5776 7.1814 11.6249 6.93681C11.6722 6.69223 11.789 6.46756 11.9605 6.29122C12.132 6.11488 12.3505 5.9948 12.5883 5.94615C12.8262 5.89749 13.0727 5.92246 13.2968 6.0179C13.5209 6.11333 13.7124 6.27494 13.8471 6.48229C13.9819 6.68964 14.0538 6.93342 14.0538 7.1828C14.0529 7.51694 13.9235 7.83715 13.6937 8.07342C13.4639 8.30969 13.1525 8.44281 12.8276 8.44368ZM22.3274 8.44368C22.0849 8.44368 21.8478 8.36973 21.6462 8.23118C21.4445 8.09264 21.2873 7.89571 21.1945 7.66532C21.1017 7.43492 21.0774 7.1814 21.1247 6.93681C21.1721 6.69223 21.2889 6.46756 21.4603 6.29122C21.6318 6.11488 21.8503 5.9948 22.0882 5.94615C22.3261 5.89749 22.5726 5.92246 22.7967 6.0179C23.0207 6.11333 23.2123 6.27494 23.347 6.48229C23.4817 6.68964 23.5536 6.93342 23.5536 7.1828C23.5528 7.51694 23.4233 7.83715 23.1936 8.07342C22.9638 8.30969 22.6524 8.44281 22.3274 8.44368ZM32.5111 13.1638C31.1344 13.1638 30.0221 14.3262 30.0221 15.7605V25.9038C30.0221 27.3335 31.139 28.5006 32.5111 28.5006C33.8877 28.5006 35 27.3382 35 25.9038V15.7559C35.0045 14.3215 33.8923 13.1638 32.5111 13.1638ZM2.48893 13.1638C1.11227 13.1638 0 14.3262 0 15.7605V25.9038C0 27.3335 1.11683 28.5006 2.48893 28.5006C3.86559 28.5006 4.97786 27.3382 4.97786 25.9038V15.7559C4.97786 14.3215 3.86103 13.1638 2.48893 13.1638Z" fill="white"/>
</svg>
