<svg width="32" height="39" viewBox="0 0 32 39" fill="none" xmlns="http://www.w3.org/2000/svg">
<path d="M26.7537 20.3699C26.7353 17.2104 28.1499 14.8292 31.0066 13.0734C29.4089 10.7571 26.9917 9.48311 23.8054 9.23758C20.7886 8.99668 17.4878 11.0165 16.2793 11.0165C15.002 11.0165 12.0813 9.32097 9.78312 9.32097C5.04034 9.39509 0 13.1476 0 20.7822C0 23.0384 0.407439 25.3686 1.22232 27.7683C2.31187 30.9278 6.23977 38.669 10.3371 38.544C12.4795 38.493 13.9948 37.0059 16.7828 37.0059C19.4884 37.0059 20.8893 38.544 23.279 38.544C27.4129 38.4837 30.9654 31.4467 32 28.2779C26.4561 25.6327 26.7537 20.5321 26.7537 20.3699ZM21.9422 6.24023C24.2632 3.45135 24.0526 0.912639 23.984 0C21.933 0.12045 19.5617 1.41297 18.2112 3.00198C16.7233 4.70681 15.8489 6.81468 16.0366 9.19125C18.2524 9.36266 20.2758 8.20912 21.9422 6.24023Z" fill="white"/>
</svg>
